<?xml version="1.0" encoding="UTF-8"?>
<svg id="Layer_1" xmlns="http://www.w3.org/2000/svg" viewBox="0 0 23.93 30.08">
  <defs>
    <style>
      .cls-1 {
        fill: #140715;
      }
    </style>
  </defs>
  <path class="cls-1" d="M4.32,6.44l1.22.84c.67.1,1.35.13,2.02.09v2.95c0,.28.22.5.5.5h13.09c.28,0,.5-.22.5-.5h0V2.85c0-.28-.22-.5-.5-.5h-3.9C16.28,1.49,15.31-.06,14.07,0H5.32c-.28-.04-.8.54-1.01.66h-.76c-.16-.31-.48-.51-.83-.51H.95C.43.15,0,.58,0,1.1v4.91c0,.52.43.95.95.95h1.77c.35,0,.67-.2.83-.51h.78ZM20.65,9.83h-12.09v-5.46h1.14l.52.53c-.2.24-.5.38-.82.38-.28,0-.5.22-.5.5h0v1.64c0,.28.22.5.5.5h0c.59,0,1.07.48,1.07,1.07,0,.28.22.5.5.5h7.26c.28,0,.5-.22.5-.5h0c0-.59.48-1.07,1.07-1.07.28,0,.5-.22.5-.5h0v-1.64c0-.28-.22-.5-.5-.5h0c-.59,0-1.07-.48-1.07-1.07,0-.28-.22-.5-.5-.5h-4.91l-.35-.35c1.91,0,5.78,0,7.68,0v6.47ZM13.48,6c.34-.34.5-.82.42-1.3h3.89c.19.74.77,1.32,1.51,1.51v.76c-.74.19-1.32.77-1.51,1.51h-6.38c-.19-.74-.77-1.32-1.51-1.51v-.76c.39-.1.74-.32,1.01-.62l.41.41c.59.59,1.55.59,2.14,0ZM5.49,1h8.58c.62-.07,1.36,1.01,1.78,1.35h-3.87l-.21-.21c-.45-.46-1.17.25-.71.71l.36.36s1.36,1.36,1.36,1.36c.48.47-.26,1.21-.73.73l-1.78-1.78c-.09-.09-.22-.15-.35-.15h-2.72c-.28,0-.5.23-.49.51,0,.27.22.48.49.49h.37v2.01h-1.58l-1-.69V1.4l.51-.4ZM3.98,5.44h-.31V1.66h.31v3.79ZM.95,1.15l1.71-.05v.06s0,4.79,0,4.79H1l-.05-4.8ZM22.98,22.97h-1.74c-.41,0-.77.28-.89.67h-.64l-.71-.71c-.25-.25-.59-.39-.94-.39h-2.37c-.24-.07-.65.09-3.29,1.27-.86.43-1.34.41-1.66,1.19l-3.23-1.37c-.75-.31-1.61.05-1.92.81-.27.65-.03,1.4.56,1.79l6.03,3.79c.08.05.17.08.27.08h5.75c.12,0,.23-.04.32-.11l1.16-.95h.67c.12.39.48.67.89.67h1.74c.52,0,.94-.42.94-.94v-4.84c0-.52-.42-.94-.94-.94ZM18.03,29.08h-5.43l-5.91-3.71c-.21-.15-.27-.44-.12-.65.12-.18.35-.25.55-.17l3.71,1.57c.26.52.82.81,1.39.73l3.46-.44c.27-.04.46-.29.42-.57-.04-.27-.28-.46-.55-.42l-3.46.45c-.19.03-.37-.09-.4-.28,0,0,0,0,0,0-.02-.08-.07-.34.11-.42.52-.18,3.32-1.5,3.78-1.61h2.48c.23-.04.79.7.95.81v3.94l-.98.8ZM20.01,24.64h.29v3.38h-.29v-3.38ZM21.3,28.69s0-.17,0-.17v-4.38c0-.06-.01-.12-.03-.17l1.66-.06.06,4.78h-1.68ZM14.29,12.85c-1.07,0-3.3,0-4.38,0-.66,0-1.19.53-1.19,1.19v6.78c0,.66.53,1.19,1.19,1.19h6.78c.66,0,1.19-.53,1.19-1.19v-6.78c0-.66-.53-1.19-1.19-1.19h-2.4ZM13.79,13.85v.66c-.15-.1-.31-.16-.49-.19-.17.03-.34.09-.49.19v-.66h.98ZM16.88,14.04v6.78c0,.1-.08.19-.19.19h-6.78c-.1,0-.19-.08-.19-.19v-6.78c0-.1.08-.19.19-.19h1.9v1.48c0,.28.23.5.51.5.08,0,.15-.02.22-.05l.76-.39c.17.06.81.47.99.44.28,0,.5-.22.5-.5v-1.48h1.9c.1,0,.19.08.19.19ZM14.61,6.09c.28,0,.49.24.48.52,0,.26-.22.47-.48.48-.28,0-.49-.24-.48-.52,0-.26.22-.47.48-.48Z"/>
</svg>